<svg width="510" height="412" viewBox="0 0 510 412" fill="none" xmlns="http://www.w3.org/2000/svg">
<g clip-path="url(#clip0)">
<path d="M509.774 361.302H-42V361.522H509.774V361.302Z" fill="#EBEBEB"/>
<path d="M454.487 379.069H417.96V379.289H454.487V379.069Z" fill="#EBEBEB"/>
<path d="M259.489 375.648H245.253V375.868H259.489V375.648Z" fill="#EBEBEB"/>
<path d="M343.8 376.751H313.894V376.972H343.8V376.751Z" fill="#EBEBEB"/>
<path d="M416.856 368.806H354.947V369.026H416.856V368.806Z" fill="#EBEBEB"/>
<path d="M45.1806 381.607H15.9365V381.828H45.1806V381.607Z" fill="#EBEBEB"/>
<path d="M80.3837 381.607H55.0021V381.828H80.3837V381.607Z" fill="#EBEBEB"/>
<path d="M169.66 375.427H102.564V375.648H169.66V375.427Z" fill="#EBEBEB"/>
<path d="M219.541 312.083H6.44623C3.02523 312.083 0.156006 309.214 0.156006 305.793V6.29022C0.156006 2.86923 3.02523 0 6.44623 0H219.541C223.073 0 225.832 2.86923 225.832 6.29022V305.793C225.832 309.214 223.073 312.083 219.541 312.083ZM6.44623 0.22071C3.13559 0.22071 0.376716 2.86923 0.376716 6.29022V305.793C0.376716 309.104 3.02523 311.863 6.44623 311.863H219.541C222.852 311.863 225.611 309.214 225.611 305.793V6.29022C225.611 2.97958 222.962 0.22071 219.541 0.22071H6.44623Z" fill="#EBEBEB"/>
<path d="M458.239 312.083H245.144C241.612 312.083 238.853 309.214 238.853 305.793V6.29022C238.853 2.86923 241.723 0 245.144 0H458.239C461.66 0 464.529 2.75887 464.529 6.29022V305.793C464.529 309.214 461.77 312.083 458.239 312.083ZM245.144 0.22071C241.833 0.22071 239.074 2.86923 239.074 6.29022V305.793C239.074 309.104 241.723 311.863 245.144 311.863H458.239C461.549 311.863 464.308 309.214 464.308 305.793V6.29022C464.308 2.97958 461.66 0.22071 458.239 0.22071H245.144Z" fill="#EBEBEB"/>
<path d="M450.624 25.3818H283.546V361.302H450.624V25.3818Z" fill="#FAFAFA"/>
<path d="M396.771 68.4199H337.179V151.517H396.771V68.4199Z" fill="white"/>
<path d="M451.507 25.3818H450.514V361.302H451.507V25.3818Z" fill="#EBEBEB"/>
<path d="M442.237 361.302H441.134V34.7617H292.927V361.302H291.824V33.6581H442.237V361.302Z" fill="#E0E0E0"/>
<path d="M429.436 199.522H406.372C404.496 199.632 402.951 198.198 402.84 196.322C402.73 194.446 404.165 192.901 406.041 192.79C406.151 192.79 406.261 192.79 406.482 192.79H429.546C431.422 192.68 432.967 194.114 433.078 195.991C433.188 197.867 431.753 199.411 429.877 199.522C429.657 199.522 429.546 199.522 429.436 199.522ZM406.372 193.894C405.158 193.783 404.054 194.777 403.944 195.991C403.834 197.204 404.827 198.308 406.041 198.418C406.151 198.418 406.261 198.418 406.372 198.418H429.436C430.65 198.529 431.753 197.535 431.864 196.322C431.974 195.108 430.981 194.004 429.767 193.894C429.657 193.894 429.546 193.894 429.436 193.894H406.372Z" fill="#E0E0E0"/>
<path d="M175.178 119.624H19.7983V132.977H175.178V119.624Z" fill="#FAFAFA"/>
<path d="M175.179 132.978H21.7858V361.302H175.179V132.978Z" fill="#FAFAFA"/>
<path d="M186.324 119.735H175.068V361.412H186.324V119.735Z" fill="#F0F0F0"/>
<path d="M93.9586 146.22H34.5878V281.184H93.9586V146.22Z" fill="#F0F0F0"/>
<path d="M76.9623 146.22H63.0576L51.5807 281.184H65.4854L76.9623 146.22Z" fill="white"/>
<path d="M160.281 350.928H36.5733C35.1387 350.928 33.9248 349.715 33.9248 348.28V291.999C33.9248 290.564 35.1387 289.35 36.5733 289.35H160.281C161.716 289.35 162.93 290.564 162.93 291.999V348.28C162.93 349.715 161.716 350.928 160.281 350.928ZM36.5733 290.675C35.9112 290.675 35.3594 291.226 35.3594 291.889V348.17C35.3594 348.832 35.9112 349.384 36.5733 349.384H160.281C160.943 349.384 161.495 348.832 161.495 348.17V291.889C161.495 291.226 160.943 290.675 160.281 290.675H36.5733Z" fill="#F0F0F0"/>
<path d="M152.225 302.924C150.68 302.924 149.355 301.6 149.355 300.055C149.355 298.51 150.68 297.186 152.225 297.186C153.77 297.186 155.094 298.51 155.094 300.055C155.094 301.6 153.88 302.924 152.225 302.924ZM152.225 298.51C151.342 298.51 150.68 299.172 150.68 300.055C150.68 300.938 151.342 301.6 152.225 301.6C153.108 301.6 153.77 300.938 153.77 300.055C153.77 299.172 153.108 298.51 152.225 298.51Z" fill="#F0F0F0"/>
<path d="M36.1327 146.22H34.5878V281.184H36.1327V146.22Z" fill="#EBEBEB"/>
<path d="M162.267 146.22H102.896V281.184H162.267V146.22Z" fill="#F0F0F0"/>
<path d="M130.373 146.22H124.635L113.158 281.184H118.896L130.373 146.22Z" fill="white"/>
<path d="M138.983 146.22H133.245L121.768 281.184H127.506L138.983 146.22Z" fill="white"/>
<path d="M104.441 146.22H102.896V281.184H104.441V146.22Z" fill="#EBEBEB"/>
<path d="M175.179 132.978H21.7858V134.633H175.179V132.978Z" fill="#EBEBEB"/>
<path d="M205.526 22.8436H46.2843V99.7609H205.526V22.8436Z" fill="#FAFAFA"/>
<path d="M146.375 89.8289C130.594 89.8289 117.793 77.0277 117.793 61.247C117.793 45.4663 130.594 32.6651 146.375 32.6651C162.156 32.6651 174.957 45.4663 174.957 61.247C174.847 77.0277 162.156 89.8289 146.375 89.8289ZM146.375 33.879C131.256 33.879 118.897 46.1284 118.897 61.3573C118.897 76.5863 131.146 88.8357 146.375 88.8357C161.604 88.8357 173.853 76.5863 173.853 61.3573C173.853 46.1284 161.494 33.879 146.375 33.879Z" fill="white"/>
<path d="M178.269 41.052C179.593 37.4103 179.814 33.5479 178.931 29.7958L175.951 29.6855C176.614 33.3272 176.172 37.0793 174.627 40.3899C163.812 40.2795 161.826 51.7564 153.218 49.2183C150.128 48.4458 146.928 48.3354 143.728 48.8872C142.404 49.1079 141.079 49.3286 139.865 49.7701C128.388 52.7496 114.373 59.9227 111.835 70.6271L114.484 71.1789C114.484 71.1789 116.249 63.2333 127.726 57.4949C126.623 58.9295 125.85 60.5848 125.299 62.3505C118.236 88.3942 166.24 83.7593 178.931 74.7102C194.601 63.6748 187.98 44.9145 178.269 41.052Z" fill="#EBEBEB"/>
<path d="M102.233 31.5616H54.1183V34.6515H102.233V31.5616Z" fill="#EBEBEB"/>
<path d="M90.094 39.3966H54.1183V42.4865H90.094V39.3966Z" fill="#EBEBEB"/>
<path d="M102.233 54.9568H54.1183V58.0467H102.233V54.9568Z" fill="#EBEBEB"/>
<path d="M77.4032 62.7918H54.1183V65.8817H77.4032V62.7918Z" fill="#EBEBEB"/>
<path d="M97.7092 62.7918H81.156V65.8817H97.7092V62.7918Z" fill="#EBEBEB"/>
<path d="M92.8528 70.627H54.1183V73.7169H92.8528V70.627Z" fill="#EBEBEB"/>
<path d="M102.233 78.4624H54.1183V81.5524H102.233V78.4624Z" fill="#EBEBEB"/>
<path d="M256.4 361.302H211.044C209.941 361.302 209.058 360.529 208.948 359.426L199.788 286.592C199.678 285.378 200.45 284.384 201.664 284.274C201.775 284.274 201.775 284.274 201.885 284.274H265.56C266.774 284.274 267.656 285.267 267.656 286.371C267.656 286.481 267.656 286.481 267.656 286.592L258.497 359.426C258.387 360.529 257.504 361.302 256.4 361.302Z" fill="#EBEBEB"/>
<path opacity="0.7" d="M198.795 282.729C197.139 283.943 198.464 302.372 200.671 306.455C202.878 310.538 215.789 307.007 231.349 305.683C246.909 304.359 265.449 309.766 266.221 306.455C266.994 303.145 271.518 285.157 269.201 282.729C267.325 280.853 244.482 280.853 234.439 281.957C224.397 283.06 202.326 280.191 198.795 282.729Z" fill="#F5F5F5"/>
<path d="M233.886 411.072C352.063 411.072 447.864 405.489 447.864 398.602C447.864 391.714 352.063 386.131 233.886 386.131C115.709 386.131 19.908 391.714 19.908 398.602C19.908 405.489 115.709 411.072 233.886 411.072Z" fill="#F5F5F5"/>
<path d="M138.982 51.2046C130.595 43.3694 116.911 41.9348 111.724 49.9907C106.537 58.0466 109.517 66.7646 98.9229 75.8137C91.7498 81.9936 97.0468 100.864 137.988 99.0986C157.411 98.3261 150.79 78.1311 150.238 68.6406C149.686 59.1501 149.796 47.4525 138.982 51.2046Z" fill="#263238"/>
<path d="M122.871 383.373L112.939 383.814L112.718 372.999L122.65 372.668L122.871 383.373Z" fill="#B55B52"/>
<path d="M112.385 381.717H123.531C123.973 381.717 124.304 382.048 124.414 382.379L126.4 391.208C126.511 391.98 126.069 392.753 125.297 392.973C125.187 392.973 125.076 392.973 124.966 392.973C120.993 392.863 119.117 392.642 114.261 392.642C111.172 392.642 103.336 392.973 99.1428 392.973C94.9494 392.973 94.3976 388.78 96.1633 388.449C103.888 386.794 108.413 384.476 110.84 382.269C111.172 381.938 111.723 381.717 112.385 381.717Z" fill="#263238"/>
<path opacity="0.2" d="M112.718 373.11L112.828 378.076L122.76 377.634L122.65 372.668L112.718 373.11Z" fill="black"/>
<path d="M98.1513 167.298C95.9442 179.216 98.4824 237.373 101.903 262.976C106.428 297.075 111.063 376.2 111.063 376.2L124.305 375.427C124.305 375.427 127.616 291.999 124.967 264.631C126.512 229.428 130.265 167.85 130.265 167.85L98.1513 167.298Z" fill="#6364EC"/>
<path opacity="0.2" d="M127.946 206.363C128.388 197.425 122.098 189.479 119.559 206.363C117.904 217.068 121.325 235.828 125.629 249.181C126.291 235.276 127.174 219.937 127.946 206.363Z" fill="black"/>
<path d="M195.704 350.045L189.193 356.225L180.475 346.845L186.876 340.665L195.704 350.045Z" fill="#B55B52"/>
<path d="M187.538 356.336L194.159 347.287C194.38 346.956 194.821 346.845 195.152 347.066L202.877 351.59C203.65 352.142 203.87 353.135 203.318 353.908C201.001 356.998 199.677 358.432 196.808 362.405C195.042 364.833 192.945 368.254 190.517 371.675C188.09 375.096 184.669 372.668 185.441 371.013C188.752 363.619 187.317 361.633 187.207 358.101C187.096 357.439 187.207 356.887 187.538 356.336Z" fill="#263238"/>
<path opacity="0.2" d="M180.475 346.845L185 351.701L191.4 345.41L186.986 340.665L180.475 346.845Z" fill="black"/>
<path d="M113.49 167.629C113.49 167.629 127.726 242.67 131.478 271.804C133.685 289.24 182.351 351.811 182.351 351.811L190.628 343.093C190.628 343.093 172.861 297.296 151.341 270.038C150.459 238.146 154.1 185.727 141.851 168.181L113.49 167.629Z" fill="#6364EC"/>
<path d="M101.02 110.134C101.02 116.535 100.689 122.935 100.247 129.336C99.8059 135.737 99.1438 142.137 98.1506 148.538L97.9299 149.752L97.7091 151.076C97.4884 151.959 97.2677 152.842 97.047 153.724C96.6056 155.38 95.9435 157.035 95.3917 158.58C94.1778 161.67 92.8535 164.65 91.3086 167.629C88.329 173.368 84.908 178.885 81.0456 184.072C80.1627 185.286 78.3971 185.507 77.1831 184.624C76.19 183.851 75.7485 182.527 76.3003 181.313V181.203C78.8385 175.575 81.3766 169.836 83.5837 164.208C84.6873 161.339 85.6805 158.47 86.5633 155.6C87.0047 154.166 87.3358 152.731 87.5565 151.407C87.6669 150.745 87.7772 150.083 87.8876 149.421L87.9979 148.427L88.1083 147.324C88.6601 141.254 88.9911 134.964 89.3222 128.784C89.6532 122.604 89.7636 116.314 89.9843 110.134V110.024C89.9843 106.934 92.5225 104.506 95.6124 104.617C98.7023 104.727 101.02 107.155 101.02 110.134Z" fill="#B55B52"/>
<path d="M97.3789 102.078C83.8052 106.051 85.5709 130.66 85.5709 130.66L104.883 135.847C104.883 135.847 108.083 117.748 107.752 111.348C107.532 104.616 104.883 99.8709 97.3789 102.078Z" fill="#6364EC"/>
<path d="M77.7353 179.768L70.8933 185.506L80.3838 189.369C80.3838 189.369 83.3634 184.844 81.9288 180.651L77.7353 179.768Z" fill="#B55B52"/>
<path d="M72.2175 194.335L76.5213 194.887C77.5145 194.997 78.5077 194.445 78.8388 193.562L80.4941 189.479L71.0036 185.617L70.2311 192.017C70.1208 193.121 71.0036 194.225 72.2175 194.335Z" fill="#B55B52"/>
<path d="M92.9652 108.479C92.303 133.198 98.0415 151.297 98.1518 167.298L141.852 168.181C141.521 152.069 141.632 141.475 148.584 112.562C149.798 107.596 146.708 102.52 141.742 101.306C141.411 101.195 141.19 101.195 140.859 101.195C138.211 100.754 135.341 100.423 132.362 100.202C125.741 99.5401 119.119 99.4298 112.498 99.7608C107.863 100.092 102.787 100.754 99.2554 101.306C95.8344 101.968 93.1859 104.948 92.9652 108.479Z" fill="#6364EC"/>
<path d="M133.686 131.322L120.774 131.212C120.333 131.212 119.891 130.881 119.891 130.329V130.219L120.553 124.039C120.664 123.487 121.105 123.046 121.767 123.046L134.679 123.156C135.12 123.156 135.562 123.487 135.562 124.039V124.149L134.9 130.329C134.789 130.881 134.348 131.322 133.686 131.322Z" fill="white"/>
<path opacity="0.4" d="M112.608 99.9814C112.608 99.9814 105.435 104.947 113.05 117.528C119.229 111.458 125.74 105.83 132.472 100.423L112.608 99.9814Z" fill="white"/>
<path d="M130.925 78.0209C129.601 84.4215 128.056 96.0088 132.47 100.423C125.628 103.182 119.228 107.044 113.71 112.01C108.855 103.071 112.607 99.9815 112.607 99.9815C119.78 98.4366 119.669 93.1395 118.566 88.1736L130.925 78.0209Z" fill="#B55B52"/>
<path opacity="0.2" d="M129.603 79.1244C129.382 82.8765 128.499 86.6286 126.733 90.0496C125.519 92.367 122.319 93.3602 119.119 93.5809C119.229 91.8152 119.008 89.9392 118.567 88.1735L129.603 79.1244Z" fill="black"/>
<path d="M141.3 70.1857C137.989 80.3384 136.886 84.7526 130.264 88.7253C120.443 94.6845 108.635 88.5046 108.745 77.4691C108.856 67.6476 114.263 52.6393 125.409 51.0943C133.354 49.9908 140.748 55.5085 141.962 63.4541C142.183 65.7715 142.072 67.9786 141.3 70.1857Z" fill="#B55B52"/>
<path d="M114.263 56.8327C119.78 58.3777 133.244 59.5916 135.892 57.9363C133.354 61.7987 135.782 72.3928 139.644 75.0413C144.941 70.8478 146.045 60.5848 141.189 55.5085C136.334 50.4322 121.105 44.3626 114.263 56.8327Z" fill="#263238"/>
<path d="M142.844 76.3653C142.182 78.3517 140.637 79.8967 138.761 80.7795C136.223 81.8831 134.568 79.7863 135.009 77.2482C135.34 74.9307 136.995 71.6201 139.644 71.5097C141.63 71.5097 143.175 73.165 143.065 75.0411C143.175 75.4825 143.065 76.0342 142.844 76.3653Z" fill="#B55B52"/>
<path d="M142.514 165.753L144.39 169.726C144.5 170.057 144.169 170.388 143.618 170.278L97.8203 169.284C97.4893 169.284 97.1582 169.064 97.0479 168.843L96.7168 164.87C96.7168 164.65 97.0479 164.429 97.4893 164.429L141.742 165.312C142.183 165.312 142.404 165.532 142.514 165.753Z" fill="#263238"/>
<path d="M136.554 170.498H137.768C137.989 170.498 138.21 170.388 138.21 170.277L137.768 165.201C137.768 165.091 137.548 164.98 137.327 164.98H136.113C135.892 164.98 135.672 165.091 135.672 165.201L136.113 170.277C136.113 170.388 136.334 170.498 136.554 170.498Z" fill="#6364EC"/>
<path d="M101.24 169.836H102.454C102.675 169.836 102.896 169.726 102.896 169.615L102.454 164.539C102.454 164.429 102.234 164.318 102.013 164.318H100.799C100.578 164.318 100.358 164.429 100.358 164.539L100.799 169.615C100.799 169.726 101.02 169.836 101.24 169.836Z" fill="#6364EC"/>
<path d="M118.897 170.167H120.111C120.332 170.167 120.552 170.057 120.552 169.946L120.111 164.87C120.111 164.76 119.89 164.649 119.67 164.649H118.456C118.235 164.649 118.014 164.76 118.014 164.87L118.456 169.946C118.456 170.057 118.676 170.167 118.897 170.167Z" fill="#6364EC"/>
<path d="M125.409 69.303C125.188 70.1858 124.526 70.7376 123.974 70.6272C123.423 70.5169 123.202 69.7444 123.312 68.8616C123.423 67.9787 124.195 67.427 124.747 67.5373C125.299 67.6477 125.63 68.5305 125.409 69.303Z" fill="#263238"/>
<path d="M115.919 66.8749C115.698 67.7577 115.036 68.3095 114.594 68.1992C114.153 68.0888 113.712 67.3163 113.932 66.4335C114.153 65.5506 114.815 64.9989 115.256 65.1092C115.698 65.2196 116.139 66.1024 115.919 66.8749Z" fill="#263238"/>
<path d="M115.587 65.2196L113.711 64.1161C113.711 64.1161 114.262 65.9921 115.587 65.2196Z" fill="#263238"/>
<path d="M118.014 68.9721C116.8 70.7378 115.366 72.2827 113.711 73.607C114.373 74.4898 115.476 74.9313 116.58 74.9313L118.014 68.9721Z" fill="#A02724"/>
<path d="M118.568 78.2413C118.457 78.1309 118.457 78.0205 118.457 78.0205C118.457 77.9102 118.678 77.7998 118.788 77.7998C120.885 78.462 123.203 78.1309 124.968 76.8066C125.079 76.6963 125.189 76.6963 125.299 76.8066C125.41 76.917 125.41 77.0274 125.299 77.1377C123.313 78.5723 120.885 79.0137 118.568 78.2413Z" fill="#263238"/>
<path d="M130.595 65.4405C130.485 65.3301 130.485 65.3301 130.485 65.2198C130.044 64.0059 129.05 63.123 127.726 62.792C127.395 62.792 127.285 62.4609 127.285 62.2402C127.285 62.0195 127.616 61.7988 127.837 61.7988C129.382 62.2402 130.706 63.3437 131.368 64.8887C131.478 65.1094 131.368 65.4405 131.037 65.5508C130.926 65.5508 130.706 65.5508 130.595 65.4405Z" fill="#263238"/>
<path d="M114.042 61.5779C113.821 61.3572 113.821 61.0261 113.931 60.8054C115.145 59.7018 116.801 59.2604 118.346 59.4811C118.566 59.5915 118.787 59.8122 118.677 60.1433C118.566 60.364 118.346 60.5847 118.015 60.4743C116.69 60.2536 115.476 60.5847 114.483 61.4675C114.483 61.6882 114.263 61.6882 114.042 61.5779Z" fill="#263238"/>
<path d="M148.583 109.141C151.783 113.445 154.763 117.638 157.742 122.163C159.177 124.37 160.612 126.577 161.936 129.005C163.371 131.432 164.695 133.86 165.909 136.509C166.24 137.281 166.571 138.164 166.792 138.937C167.012 139.599 167.123 140.261 167.123 140.923C167.123 141.144 167.123 141.475 167.123 141.695V142.137C167.123 142.358 167.123 142.578 167.012 142.799L166.902 143.13V143.24V143.351L166.792 143.572C166.24 144.896 165.909 146.22 165.247 147.544C164.143 150.193 162.819 152.731 161.274 155.048C159.619 157.476 157.853 159.683 155.646 161.67C154.542 162.663 153.439 163.546 152.225 164.429C151.563 164.87 151.011 165.201 150.238 165.642L149.245 166.194C148.804 166.415 148.583 166.525 148.031 166.746L145.935 161.67C146.045 161.559 146.266 161.339 146.376 161.228L147.038 160.677C147.479 160.345 147.811 159.904 148.252 159.463C149.024 158.58 149.797 157.697 150.459 156.814C151.783 154.938 152.997 152.952 153.99 150.855C154.432 149.751 154.984 148.758 155.315 147.544C155.646 146.33 156.087 145.337 156.529 144.234C156.97 143.13 157.191 141.916 157.522 140.813V140.592V140.482V140.592V140.813C157.522 140.923 157.411 141.144 157.411 141.254C157.411 141.364 157.411 141.475 157.411 141.475V141.806C157.411 142.027 157.411 142.027 157.411 141.916C157.411 141.806 157.08 141.254 156.86 140.702C155.866 138.826 154.542 136.619 153.108 134.522C151.673 132.426 150.238 130.329 148.804 128.232C145.935 124.039 142.845 119.845 139.865 115.652L148.583 109.141Z" fill="#B55B52"/>
<path d="M151.011 165.312L142.514 171.271L138.651 162.553C138.651 162.553 143.838 159.794 147.921 161.67L151.011 165.312Z" fill="#B55B52"/>
<path d="M136.555 172.043L134.458 169.064C133.575 167.85 133.906 166.194 135.01 165.311L138.651 162.553L142.514 171.271L140.196 172.705C138.982 173.478 137.327 173.257 136.555 172.043Z" fill="#B55B52"/>
<path d="M131.588 106.492C128.718 117.969 146.486 137.612 146.486 137.612L161.494 122.052C161.494 122.052 154.652 107.375 145.713 102.851C139.423 99.6504 132.802 101.416 131.588 106.492Z" fill="#6364EC"/>
<path d="M125.078 67.6474L123.202 66.5438C123.202 66.5438 123.754 68.4199 125.078 67.6474Z" fill="#263238"/>
<path d="M105.876 137.171C105.766 137.171 105.545 137.061 105.545 136.95C105.435 136.73 105.545 136.509 105.766 136.398L107.531 135.736C110.842 134.522 113.049 131.322 113.049 127.901L113.159 111.789C113.27 108.81 110.952 106.382 107.973 106.272C105.876 106.161 103.89 107.375 103.007 109.361L95.5026 123.708C93.8473 126.798 94.2887 130.55 96.6061 133.198L97.82 134.522C97.9304 134.633 98.0408 134.964 97.82 135.074C97.5993 135.185 97.3786 135.295 97.2683 135.074C97.2683 135.074 97.2683 135.074 97.1579 134.964L95.944 133.529C93.4059 130.66 92.8541 126.467 94.7301 123.156L102.234 108.81C103.779 105.83 107.531 104.616 110.511 106.161C112.608 107.265 113.821 109.361 113.821 111.679L113.711 127.791C113.711 131.653 111.283 135.074 107.752 136.398L105.986 137.061L105.876 137.171Z" fill="#263238"/>
<path d="M113.379 115.321C113.158 115.321 113.048 115.1 112.937 114.879C112.496 111.348 109.296 108.92 105.875 109.361C104.109 109.582 102.454 110.575 101.461 112.01C101.35 112.231 101.13 112.231 100.909 112.12C100.688 112.01 100.688 111.789 100.798 111.568C103.006 108.258 107.42 107.485 110.73 109.692C112.496 110.906 113.6 112.782 113.82 114.879C113.82 115.1 113.6 115.321 113.379 115.321Z" fill="#263238"/>
<path d="M109.076 106.492C108.965 106.492 108.855 106.382 108.745 106.271C108.303 105.389 108.303 104.285 108.745 103.402C109.296 101.637 110.731 100.202 112.497 99.4294C112.717 99.3191 112.938 99.4294 112.938 99.6501C113.048 99.8709 112.938 100.092 112.717 100.092C111.172 100.754 110.069 101.968 109.517 103.513C109.186 104.175 109.186 104.947 109.407 105.72C109.517 105.94 109.517 106.161 109.296 106.271C109.186 106.492 109.186 106.492 109.076 106.492Z" fill="#263238"/>
<path d="M104.993 136.509C104.772 137.171 104.993 137.943 105.544 138.054C106.096 138.164 106.538 137.723 106.758 136.95C106.979 136.178 106.648 135.516 106.207 135.405C105.765 135.295 105.103 135.847 104.993 136.509Z" fill="#263238"/>
<path d="M136.334 117.528C136.665 119.183 137.879 120.397 138.983 120.066C140.086 119.735 140.638 118.3 140.307 116.645C139.976 114.99 138.762 113.776 137.659 114.107C136.555 114.438 135.893 115.873 136.334 117.528Z" fill="#263238"/>
<path d="M139.756 116.976C139.535 116.976 139.314 116.866 139.314 116.645C139.094 110.575 136.776 102.961 132.252 100.754C132.031 100.644 132.031 100.423 132.031 100.202C132.141 99.9814 132.362 99.9814 132.583 99.9814C137.438 102.409 139.866 110.024 140.087 116.535C140.197 116.755 139.977 116.866 139.756 116.976Z" fill="#263238"/>
<path d="M135.12 117.638C135.341 119.073 136.334 120.066 137.437 119.955C138.541 119.845 139.093 118.521 138.872 117.086C138.651 115.652 137.658 114.658 136.555 114.769C135.451 114.879 134.899 116.203 135.12 117.638Z" fill="white"/>
<path d="M135.01 117.749C135.341 119.515 136.224 120.839 137.107 120.618C137.989 120.397 138.32 118.963 137.989 117.197C137.658 115.431 136.775 114.107 135.893 114.328C135.01 114.549 134.679 115.983 135.01 117.749Z" fill="#263238"/>
<path d="M96.6066 134.523C96.3859 135.295 96.717 135.957 97.1584 136.068C97.5998 136.178 98.1516 135.737 98.3723 134.964C98.593 134.192 98.262 133.529 97.8205 133.419C97.3791 133.309 96.8273 133.75 96.6066 134.523Z" fill="#263238"/>
<path d="M217.554 44.5833C210.602 45.7972 209.719 45.2454 209.609 40.1691C209.498 35.0928 206.96 26.8161 210.491 24.1676C211.264 23.3951 212.478 23.5055 213.14 24.278C213.361 24.4987 213.581 24.8298 213.581 25.1608C214.023 24.0573 215.347 23.3951 216.451 23.8366C216.561 22.8434 216.782 20.1949 218.658 19.4224C220.534 18.6499 222.299 20.4156 222.299 20.4156C222.299 20.4156 222.189 16.3324 224.948 16.7739C226.603 16.9946 227.928 18.3188 228.369 19.9741C228.369 19.9741 229.914 17.6567 232.121 18.5395C234.328 19.4224 233.776 22.1812 233.776 22.1812C233.776 22.1812 236.094 21.0777 237.749 22.2916C239.404 23.5055 238.191 25.4919 238.191 25.4919C238.191 25.4919 239.736 21.5191 242.715 23.7262C245.364 25.7126 242.936 28.8025 242.936 28.8025C242.936 28.8025 245.805 28.3611 246.577 29.7957C249.005 34.7617 239.846 40.3898 239.625 48.7768C225.72 54.0738 217.554 44.5833 217.554 44.5833Z" fill="#263238"/>
<path d="M167.122 178.775L162.487 177.892L156.307 183.741C155.645 184.403 155.204 185.286 155.314 186.168L155.424 191.024C155.424 192.679 156.749 194.114 158.514 194.224L160.611 194.445C162.266 194.555 163.701 193.562 164.142 192.017L165.246 188.044C165.246 188.155 171.316 180.982 167.122 178.775Z" fill="#FFB573"/>
<path d="M214.245 90.8222C211.155 98.8781 208.065 107.044 204.976 115.211C201.886 123.377 199.016 131.543 196.257 139.599L195.816 141.144L195.485 142.137C195.375 142.468 195.264 142.91 195.044 143.13C194.492 144.455 194.05 145.558 193.499 146.662C192.505 148.869 191.402 150.855 190.298 152.842C188.202 156.814 185.995 160.677 183.787 164.429C179.373 172.043 174.959 179.548 170.434 187.162L156.419 178.444C161.054 171.271 165.469 163.767 169.772 156.373C171.869 152.621 173.966 148.869 175.842 145.227C176.835 143.351 177.718 141.475 178.49 139.709C178.932 138.827 179.263 137.944 179.484 137.171C179.594 136.951 179.594 136.84 179.704 136.73L179.925 136.178L180.477 134.523C183.125 126.025 185.884 117.859 188.643 109.583L196.699 84.7527L214.245 90.8222Z" fill="#6364EC"/>
<path opacity="0.6" d="M214.245 90.8222C211.155 98.8781 208.065 107.044 204.976 115.211C201.886 123.377 199.016 131.543 196.257 139.599L195.816 141.144L195.485 142.137C195.375 142.468 195.264 142.91 195.044 143.13C194.492 144.455 194.05 145.558 193.499 146.662C192.505 148.869 191.402 150.855 190.298 152.842C188.202 156.814 185.995 160.677 183.787 164.429C179.373 172.043 174.959 179.548 170.434 187.162L156.419 178.444C161.054 171.271 165.469 163.767 169.772 156.373C171.869 152.621 173.966 148.869 175.842 145.227C176.835 143.351 177.718 141.475 178.49 139.709C178.932 138.827 179.263 137.944 179.484 137.171C179.594 136.951 179.594 136.84 179.704 136.73L179.925 136.178L180.477 134.523C183.125 126.025 185.884 117.859 188.643 109.583L196.699 84.7527L214.245 90.8222Z" fill="white"/>
<path d="M172.09 386.132L162.269 386.683L166.903 360.86L176.284 363.067L172.09 386.132Z" fill="#FFB573"/>
<path d="M243.158 386.463H233.226V363.619H243.158V386.463Z" fill="#FFB573"/>
<path d="M232.343 385.359H244.371C244.813 385.359 245.144 385.69 245.144 386.021L246.689 394.849C246.799 395.732 246.247 396.505 245.475 396.615C245.364 396.615 245.254 396.615 245.254 396.615C241.392 396.505 238.522 396.284 233.667 396.284C230.687 396.284 221.528 396.615 217.445 396.615C213.362 396.615 212.92 392.532 214.575 392.091C222.3 390.435 228.149 388.118 230.687 385.911C231.129 385.58 231.68 385.359 232.343 385.359Z" fill="#263238"/>
<path opacity="0.2" d="M166.902 360.86L164.695 372.779L174.186 374.986L176.282 363.067L166.902 360.86Z" fill="black"/>
<path opacity="0.2" d="M243.158 363.619H233.226V375.427H243.158V363.619Z" fill="black"/>
<path d="M251.103 90.4909C243.379 125.253 245.475 159.573 244.593 166.967L191.733 163.435C186.215 121.501 192.395 94.7948 195.926 83.7593C197.14 80.0072 200.34 77.3587 204.092 76.9173C211.927 76.0344 219.873 75.8137 227.708 76.1448C233.005 76.4758 238.302 77.2483 243.599 78.5726C249.007 79.7865 252.317 85.1939 251.103 90.4909Z" fill="#6364EC"/>
<path d="M235.212 52.6389C233.446 59.1499 231.46 70.7371 234.771 76.5859C235.322 77.4688 234.329 78.2412 234.219 79.3448C234.109 82.5451 229.694 83.5383 221.859 83.6486C214.024 83.759 210.603 80.4483 212.81 77.3584C213.141 76.917 213.582 76.5859 214.245 76.4756C221.638 74.8202 221.749 69.0818 220.756 63.564L235.212 52.6389Z" fill="#FFB573"/>
<path opacity="0.4" d="M221.307 81.8834C223.404 84.7526 224.728 88.0633 225.059 91.5946C232.895 87.9529 236.647 79.0142 236.647 79.0142L234.329 76.476C234.329 76.476 225.611 78.1313 221.307 81.8834Z" fill="black"/>
<path opacity="0.4" d="M220.535 81.883C217.665 84.2005 215.238 87.0697 213.362 90.27C207.844 86.849 209.72 77.1378 209.72 77.1378L214.244 76.2549C214.134 76.3653 216.121 78.2413 220.535 81.883Z" fill="black"/>
<path d="M220.864 81.6624L219.209 81.7728L216.34 83.6488C216.119 84.7524 216.34 85.9663 216.891 86.9595C218.547 87.2906 220.202 87.4009 221.968 87.2905C223.071 86.7388 223.954 85.8559 224.506 84.642L222.409 81.9935L220.864 81.6624Z" fill="#263238"/>
<path d="M220.865 81.6626C222.962 84.3112 224.618 87.2907 225.721 90.6014C233.556 86.9597 238.081 78.1313 238.081 78.1313L234.329 74.8206C234.218 74.7103 225.169 77.9106 220.865 81.6626Z" fill="#6364EC"/>
<path d="M220.866 81.6622C217.886 83.5382 215.238 86.0764 213.031 88.9456C207.513 85.5246 209.61 76.4755 209.61 76.4755L214.134 75.5927C214.134 75.4823 216.452 78.0205 220.866 81.6622Z" fill="#6364EC"/>
<path opacity="0.2" d="M229.253 57.0533L220.645 63.4539C220.866 64.7781 221.086 66.1024 221.086 67.537C224.176 67.3163 228.701 64.2264 229.142 61.0261C229.473 59.7018 229.473 58.3775 229.253 57.0533Z" fill="black"/>
<path d="M236.757 41.8247C235.543 51.5359 235.322 57.2744 230.025 62.0196C222.079 69.0823 210.271 63.7853 208.616 53.8534C207.071 44.9146 209.389 30.4581 219.21 27.2578C226.273 24.9404 233.777 28.6925 236.205 35.6448C236.867 37.6312 237.088 39.8383 236.757 41.8247Z" fill="#FFB573"/>
<path d="M234.329 50.6528C232.122 48.556 233.446 38.293 234.66 35.4238C229.142 35.9756 211.264 35.9756 211.927 31.0096C212.589 26.0437 219.1 21.9605 229.694 25.3815C238.522 28.2508 240.729 32.665 240.729 36.3067C240.95 43.5901 234.329 50.6528 234.329 50.6528Z" fill="#263238"/>
<path d="M240.178 50.7633C239.185 52.7497 237.309 54.2946 235.212 54.9568C232.343 55.8396 231.018 53.1911 231.791 50.4322C232.453 47.8941 234.881 44.4731 237.64 44.8041C240.399 45.1352 241.502 48.3355 240.178 50.7633Z" fill="#FFB573"/>
<path d="M161.495 369.799L177.827 373.441C177.827 373.441 193.718 311.09 198.463 280.632C199.898 271.363 203.319 258.12 206.299 244.215C210.161 226.669 215.017 207.688 218.989 192.79C223.183 177.119 226.273 165.863 226.273 165.863L191.732 163.546C191.732 163.546 175.62 245.098 172.42 275.115C169.109 306.345 161.495 369.799 161.495 369.799Z" fill="#263238"/>
<path opacity="0.2" d="M206.41 244.105C210.272 226.558 215.128 207.577 219.101 192.679L215.459 184.955C206.851 195.218 204.644 226.889 206.41 244.105Z" fill="black"/>
<path d="M208.285 164.539C208.285 164.539 215.458 247.857 218.217 276.77C221.307 308.331 229.584 373.11 229.584 373.11H246.247C246.247 373.11 247.02 304.138 244.04 273.68C243.599 213.647 244.702 166.967 244.702 166.967L208.285 164.539Z" fill="#263238"/>
<path d="M227.487 373.551H248.785V367.15L226.604 365.936L227.487 373.551Z" fill="#6364EC"/>
<path d="M159.398 369.688L178.82 373.992L180.255 367.702L159.839 362.515L159.398 369.688Z" fill="#6364EC"/>
<path d="M222.521 43.59C222.521 44.3625 221.969 45.0246 221.528 44.9143C221.086 44.8039 220.645 44.2521 220.645 43.3693C220.645 42.4865 221.197 41.9347 221.638 42.0451C222.08 42.1554 222.631 42.8175 222.521 43.59Z" fill="#263238"/>
<path d="M213.472 43.0382C213.472 43.8107 212.92 44.4728 212.479 44.3625C212.037 44.2521 211.596 43.7003 211.596 42.8175C211.596 41.9347 212.148 41.3829 212.589 41.4932C213.031 41.6036 213.582 42.1554 213.472 43.0382Z" fill="#263238"/>
<path d="M215.568 43.5901C214.464 45.9075 213.03 48.1146 211.264 50.101C212.588 51.5356 215.016 51.0942 215.016 51.0942L215.568 43.5901Z" fill="#ED893E"/>
<path d="M218.328 53.4117C220.093 53.3014 221.859 52.4185 222.963 51.0943C223.073 50.9839 223.073 50.8735 222.963 50.7632C222.852 50.6528 222.742 50.6528 222.632 50.7632C221.307 52.3082 219.321 53.0807 217.334 52.8599C217.224 52.8599 217.114 52.9703 217.114 53.0806C217.114 53.191 217.224 53.3014 217.334 53.3014C217.666 53.4117 217.997 53.5221 218.328 53.4117Z" fill="#263238"/>
<path d="M224.728 40.8315C224.839 40.8315 224.839 40.8315 224.949 40.7211C225.17 40.6107 225.28 40.2797 225.059 40.059C224.287 38.7347 222.852 37.9622 221.418 37.8519C221.197 37.8519 220.976 38.1829 220.976 38.4036C220.976 38.6244 221.197 38.7347 221.418 38.8451C222.632 38.9554 223.735 39.6175 224.287 40.6107C224.397 40.7211 224.508 40.8315 224.728 40.8315Z" fill="#263238"/>
<path d="M209.058 39.6173C209.168 39.6173 209.389 39.5069 209.389 39.3966C209.941 38.4034 211.044 37.6309 212.148 37.5205C212.369 37.5205 212.589 37.2998 212.589 37.0791C212.589 36.8584 212.369 36.6377 212.148 36.6377C210.603 36.8584 209.279 37.7412 208.617 39.0655C208.506 39.2862 208.617 39.6173 208.837 39.7276C208.837 39.6173 208.948 39.7276 209.058 39.6173Z" fill="#263238"/>
<path d="M228.923 387.124C229.805 387.124 230.688 387.014 231.571 386.793C231.681 386.793 231.681 386.683 231.792 386.573C231.792 386.462 231.792 386.352 231.681 386.352C231.35 386.131 228.26 384.145 227.047 384.697C226.826 384.807 226.605 385.028 226.605 385.359C226.495 385.8 226.715 386.242 227.047 386.573C227.598 387.014 228.26 387.124 228.923 387.124ZM230.909 386.352C229.254 386.683 227.929 386.573 227.378 386.131C227.157 385.911 227.047 385.58 227.047 385.249C227.047 385.028 227.157 385.028 227.157 385.028C227.819 384.807 229.585 385.69 230.909 386.352Z" fill="#6364EC"/>
<path d="M231.46 386.794H231.571C231.681 386.794 231.681 386.683 231.681 386.573C231.681 386.462 231.571 383.593 230.467 382.71C230.246 382.49 229.805 382.379 229.474 382.379C229.143 382.379 228.812 382.6 228.701 382.931C228.481 384.035 230.357 386.242 231.46 386.794ZM229.695 382.71C229.915 382.71 230.026 382.821 230.246 382.931C230.909 383.483 231.24 385.138 231.24 386.021C230.246 385.249 229.033 383.593 229.253 382.931C229.253 382.931 229.253 382.821 229.695 382.71Z" fill="#6364EC"/>
<path d="M160.722 382.269L172.31 385.58C172.641 385.69 172.972 386.021 172.861 386.462L171.979 395.401C171.868 396.284 171.096 396.836 170.213 396.725C170.102 396.725 170.102 396.725 169.992 396.725C166.24 395.622 163.592 394.629 158.957 393.304C156.087 392.532 146.707 389.111 143.176 386.793C139.645 384.476 141.741 380.834 143.397 381.496C150.68 384.476 155.867 383.924 158.846 382.6C159.508 382.159 160.171 382.159 160.722 382.269Z" fill="#263238"/>
<path d="M157.081 383.041C157.964 383.262 158.846 383.372 159.729 383.372C159.84 383.372 159.95 383.372 159.95 383.262C159.95 383.152 159.95 383.041 159.95 383.041C159.729 382.71 157.191 379.951 155.977 380.282C155.646 380.393 155.425 380.503 155.425 380.834C155.205 381.276 155.315 381.717 155.536 382.158C155.867 382.49 156.419 382.931 157.081 383.041ZM159.067 382.931C157.301 382.821 156.088 382.379 155.757 381.827C155.646 381.496 155.646 381.165 155.757 380.945C155.867 380.724 155.867 380.724 155.977 380.724C156.639 380.503 158.074 381.827 159.067 382.931Z" fill="#6364EC"/>
<path d="M159.618 383.373H159.729C159.839 383.373 159.839 383.262 159.949 383.152C159.949 383.042 160.612 380.283 159.839 379.069C159.618 378.738 159.287 378.517 158.956 378.517C158.625 378.407 158.184 378.627 158.073 378.848C157.411 379.952 158.625 382.49 159.618 383.373C159.508 383.373 159.508 383.373 159.618 383.373ZM158.956 378.958C159.177 378.958 159.287 379.179 159.398 379.29C159.949 380.062 159.729 381.717 159.508 382.6C158.736 381.607 158.073 379.731 158.405 379.069C158.405 379.069 158.515 378.958 158.956 378.958Z" fill="#6364EC"/>
<path d="M235.322 75.8138C234.881 75.7035 234.439 76.0345 234.439 76.4759C234.439 76.5863 234.439 76.5863 234.439 76.6966C234.881 82.6558 225.611 93.2499 223.404 125.142C222.08 144.565 220.866 204.929 221.748 236.38C221.748 237.925 223.073 239.029 224.507 239.029C224.728 239.029 224.949 239.029 225.169 238.918C241.502 234.394 249.116 245.429 252.317 232.407C252.206 216.847 247.461 160.897 248.675 147.655C249.889 134.412 254.965 98.4366 256.179 88.8357C257.283 80.3384 239.957 76.5863 235.322 75.8138Z" fill="#6364EC"/>
<path opacity="0.7" d="M235.322 75.8138C234.881 75.7035 234.439 76.0345 234.439 76.4759C234.439 76.5863 234.439 76.5863 234.439 76.6966C234.881 82.6558 225.611 93.2499 223.404 125.142C222.08 144.565 220.866 204.929 221.748 236.38C221.748 237.925 223.073 239.029 224.507 239.029C224.728 239.029 224.949 239.029 225.169 238.918C241.502 234.394 249.116 245.429 252.317 232.407C252.206 216.847 247.461 160.897 248.675 147.655C249.889 134.412 254.965 98.4366 256.179 88.8357C257.283 80.3384 239.957 76.5863 235.322 75.8138Z" fill="white"/>
<path opacity="0.2" d="M246.138 102.74C245.475 107.706 245.144 127.57 249.89 137.06C250.662 130.439 251.766 122.604 252.759 114.989L246.138 102.74Z" fill="#6364EC"/>
<path d="M252.869 188.817L248.124 189.369L243.93 196.762C243.489 197.535 243.378 198.528 243.709 199.411L245.254 203.935C245.806 205.591 247.461 206.474 249.117 206.142L251.214 205.701C252.758 205.37 253.972 203.935 253.862 202.28L253.752 198.197C253.752 198.307 257.393 189.7 252.869 188.817Z" fill="#FFB573"/>
<path d="M255.407 84.9731C256.952 89.3873 258.276 93.6911 259.711 98.1053C261.145 102.52 262.47 106.934 263.794 111.348C265.118 115.762 266.332 120.287 267.546 124.922C268.098 127.239 268.649 129.556 269.201 131.984C269.422 133.198 269.643 134.412 269.863 135.736C269.974 136.398 270.084 137.061 270.084 137.833L270.194 138.937V140.151C270.194 140.592 270.194 141.033 270.194 141.364C270.194 141.806 270.194 142.247 270.194 142.578L270.084 143.682L269.974 144.675C269.863 145.999 269.643 147.213 269.422 148.427C268.981 150.855 268.539 153.172 268.098 155.49C267.104 160.125 266.111 164.539 265.008 169.063C263.904 173.588 262.801 178.002 261.697 182.416L258.386 195.769L242.385 191.466C244.813 182.858 247.13 174.029 249.227 165.311C250.22 160.897 251.213 156.593 251.986 152.29C252.427 150.082 252.758 147.986 253.089 145.889C253.2 144.896 253.42 143.792 253.531 142.909C253.641 142.137 253.641 141.475 253.641 140.702V140.261L253.531 139.709C253.531 139.378 253.42 138.826 253.31 138.385C253.2 137.502 252.979 136.509 252.758 135.516C252.317 133.529 251.765 131.432 251.213 129.336C250.11 125.142 248.675 120.949 247.241 116.755C244.482 108.368 241.281 99.871 237.971 91.5944L255.407 84.9731Z" fill="#6364EC"/>
<path opacity="0.7" d="M255.407 84.9731C256.952 89.3873 258.276 93.6911 259.711 98.1053C261.145 102.52 262.47 106.934 263.794 111.348C265.118 115.762 266.332 120.287 267.546 124.922C268.098 127.239 268.649 129.556 269.201 131.984C269.422 133.198 269.643 134.412 269.863 135.736C269.974 136.398 270.084 137.061 270.084 137.833L270.194 138.937V140.151C270.194 140.592 270.194 141.033 270.194 141.364C270.194 141.806 270.194 142.247 270.194 142.578L270.084 143.682L269.974 144.675C269.863 145.999 269.643 147.213 269.422 148.427C268.981 150.855 268.539 153.172 268.098 155.49C267.104 160.125 266.111 164.539 265.008 169.063C263.904 173.588 262.801 178.002 261.697 182.416L258.386 195.769L242.385 191.466C244.813 182.858 247.13 174.029 249.227 165.311C250.22 160.897 251.213 156.593 251.986 152.29C252.427 150.082 252.758 147.986 253.089 145.889C253.2 144.896 253.42 143.792 253.531 142.909C253.641 142.137 253.641 141.475 253.641 140.702V140.261L253.531 139.709C253.531 139.378 253.42 138.826 253.31 138.385C253.2 137.502 252.979 136.509 252.758 135.516C252.317 133.529 251.765 131.432 251.213 129.336C250.11 125.142 248.675 120.949 247.241 116.755C244.482 108.368 241.281 99.871 237.971 91.5944L255.407 84.9731Z" fill="white"/>
<path d="M213.914 74.931C214.576 74.931 215.238 75.4827 215.238 76.2552C215.238 76.5863 215.128 76.807 214.907 77.0277C212.258 80.1176 210.603 84.2008 207.513 97.6641C203.761 113.886 195.816 195.328 194.271 235.166C194.271 236.38 193.167 237.484 191.953 237.373C191.843 237.373 191.732 237.373 191.622 237.373C183.787 235.939 178.49 239.691 177.607 234.725C176.614 229.207 180.145 176.457 186.656 151.738C185.663 129.777 189.305 85.6354 196.698 79.7866C200.782 76.5863 209.279 75.0413 213.914 74.931Z" fill="#6364EC"/>
<path opacity="0.7" d="M213.914 74.931C214.576 74.931 215.238 75.4827 215.238 76.2552C215.238 76.5863 215.128 76.807 214.907 77.0277C212.258 80.1176 210.603 84.2008 207.513 97.6641C203.761 113.886 195.816 195.328 194.271 235.166C194.271 236.38 193.167 237.484 191.953 237.373C191.843 237.373 191.732 237.373 191.622 237.373C183.787 235.939 178.49 239.691 177.607 234.725C176.614 229.207 180.145 176.457 186.656 151.738C185.663 129.777 189.305 85.6354 196.698 79.7866C200.782 76.5863 209.279 75.0413 213.914 74.931Z" fill="white"/>
<path d="M218.218 85.8562C218.218 85.8562 208.728 112.672 205.307 135.074C205.086 141.144 207.955 152.952 210.273 158.139C215.128 147.434 218.218 141.144 218.77 135.074C219.542 125.915 220.867 86.0769 220.867 86.0769L218.218 85.8562Z" fill="#263238"/>
<path d="M238.192 117.749C237.971 117.749 237.75 117.528 237.75 117.307C237.75 117.197 237.861 116.976 237.971 116.976L239.737 115.983C243.158 114.217 245.144 110.465 244.703 106.603L242.716 88.8358C242.385 85.5251 239.406 83.2077 236.205 83.5387C233.998 83.7595 232.122 85.3044 231.35 87.2908L224.949 103.954C223.515 107.596 224.508 111.679 227.377 114.328L228.922 115.652C229.143 115.873 229.143 116.093 228.922 116.314C228.701 116.535 228.481 116.535 228.26 116.314L226.715 114.99C223.515 112.121 222.521 107.596 224.066 103.734L230.467 87.0701C231.791 83.5387 235.764 81.7731 239.295 83.0973C241.723 83.9802 243.378 86.1873 243.599 88.7254L245.586 106.493C246.027 110.686 243.82 114.769 240.068 116.756L238.302 117.749H238.192Z" fill="#263238"/>
<path d="M243.6 92.6981C243.379 92.6981 243.158 92.5877 243.158 92.367C242.606 89.3875 240.179 87.1804 237.199 86.9597C234.771 86.6286 231.461 87.4011 230.136 90.6014C230.026 90.8221 229.805 90.9324 229.585 90.9324C229.364 90.8221 229.254 90.6014 229.254 90.3806C231.24 86.5182 236.096 84.9733 239.958 86.9597C242.055 88.0632 243.489 89.9392 244.041 92.2567C244.041 92.4774 243.931 92.6981 243.6 92.6981Z" fill="#263238"/>
<path d="M237.64 83.5383C237.42 83.5383 237.199 83.3176 237.199 83.0969C237.309 81.0002 236.978 77.0274 234.992 76.0342C234.771 75.9239 234.661 75.7032 234.771 75.4825C234.881 75.2617 235.102 75.1514 235.323 75.2617C238.302 76.8067 237.971 82.5452 237.971 83.2073C238.082 83.428 237.861 83.5383 237.64 83.5383Z" fill="#263238"/>
<path d="M229.694 116.204C229.583 117.086 229.032 117.638 228.48 117.528C227.928 117.417 227.597 116.755 227.707 115.983C227.818 115.21 228.37 114.548 228.921 114.659C229.473 114.769 229.804 115.431 229.694 116.204Z" fill="#263238"/>
<path d="M203.981 98.3258C203.319 100.091 201.774 101.195 200.671 100.643C199.567 100.091 199.126 98.4361 199.788 96.6704C200.45 94.9048 201.995 93.8012 203.099 94.353C204.202 94.9048 204.754 96.5601 203.981 98.3258Z" fill="#263238"/>
<path d="M200.339 97.2226C200.008 97.2226 199.898 96.8915 199.898 96.6708C201.332 89.3874 207.402 77.9105 212.699 74.5999C212.92 74.4895 213.14 74.4895 213.361 74.5999C213.582 74.7102 213.471 75.0413 213.361 75.262C213.361 75.262 213.251 75.262 213.251 75.3723C208.174 78.5726 202.326 89.7185 200.891 96.8915C200.781 97.0019 200.56 97.2226 200.339 97.2226Z" fill="#263238"/>
<path d="M205.306 98.6572C204.754 100.202 203.54 101.085 202.437 100.754C201.333 100.423 200.892 98.8779 201.333 97.333C201.775 95.788 203.099 94.9051 204.202 95.2362C205.306 95.5673 205.747 97.2226 205.306 98.6572Z" fill="white"/>
<path d="M205.306 98.8781C204.643 100.754 203.429 101.968 202.547 101.747C201.664 101.527 201.553 99.6506 202.216 97.7745C202.878 95.8985 204.092 94.6846 204.974 94.9053C205.857 95.126 206.078 97.002 205.306 98.8781Z" fill="#263238"/>
<path d="M239.075 117.417C238.965 118.19 238.413 118.852 237.861 118.742C237.31 118.631 236.978 117.969 237.089 117.086C237.199 116.204 237.751 115.652 238.303 115.762C238.855 115.872 239.186 116.645 239.075 117.417Z" fill="#263238"/>
<path d="M301.644 69.6338C305.286 79.676 295.575 84.7524 289.064 99.6503C282.553 114.548 298.113 132.205 321.949 132.536C345.786 132.867 346.448 110.134 342.807 93.8015C339.165 77.4689 346.779 74.8204 345.234 62.3503C343.138 45.9075 319.522 33.5477 310.142 48.556C301.755 47.7835 298.444 60.8054 301.644 69.6338Z" fill="#263238"/>
<path d="M372.161 205.26V203.935C372.161 203.273 371.94 202.721 371.719 202.17L367.746 194.334L363.112 193.452C359.801 196.983 363.112 204.156 363.112 204.156V205.26C363.112 207.136 364.436 208.901 366.201 209.343L366.864 209.563C369.181 210.115 371.498 208.791 372.161 206.473C372.05 206.142 372.161 205.701 372.161 205.26Z" fill="#FFC3BD"/>
<path d="M352.298 103.844L354.063 115.872L355.829 127.901C356.381 131.874 357.043 135.957 357.705 139.93L359.581 151.848L359.802 153.062C359.912 153.503 360.022 153.945 360.133 154.386L360.464 155.71L360.905 157.145C361.457 159.021 362.009 160.897 362.561 162.773C363.664 166.525 364.878 170.388 366.202 174.25C368.74 181.865 371.389 189.589 374.258 197.094L358.698 202.611L350.863 179.326C349.539 175.464 348.214 171.491 347 167.518C346.338 165.532 345.787 163.546 345.235 161.449L344.793 159.904L344.352 158.359C344.242 157.807 344.021 157.366 343.911 156.704L343.469 154.938L341.152 142.799C340.379 138.826 339.607 134.743 338.834 130.77L336.517 118.742L333.868 107.044L352.298 103.844Z" fill="#6364EC"/>
<path opacity="0.6" d="M352.298 103.844L354.063 115.872L355.829 127.901C356.381 131.874 357.043 135.957 357.705 139.93L359.581 151.848L359.802 153.062C359.912 153.503 360.022 153.945 360.133 154.386L360.464 155.71L360.905 157.145C361.457 159.021 362.009 160.897 362.561 162.773C363.664 166.525 364.878 170.388 366.202 174.25C368.74 181.865 371.389 189.589 374.258 197.094L358.698 202.611L350.863 179.326C349.539 175.464 348.214 171.491 347 167.518C346.338 165.532 345.787 163.546 345.235 161.449L344.793 159.904L344.352 158.359C344.242 157.807 344.021 157.366 343.911 156.704L343.469 154.938L341.152 142.799C340.379 138.826 339.607 134.743 338.834 130.77L336.517 118.742L333.868 107.044L352.298 103.844Z" fill="white"/>
<path d="M349.758 102.961C350.31 108.809 349.758 123.487 343.909 159.793H303.078C303.74 144.013 303.74 133.97 297.008 103.954C296.346 101.195 298.112 98.5465 300.871 97.8844C300.981 97.8844 301.091 97.8844 301.202 97.774C305.174 97.1119 309.258 96.6705 313.23 96.4497C319.41 96.0083 325.59 96.0083 331.77 96.4497C336.846 96.8912 342.364 97.774 345.675 98.4361C347.992 98.8775 349.647 100.754 349.758 102.961Z" fill="#263238"/>
<path d="M314.997 75.4827C316.211 81.4418 317.314 92.367 313.121 96.3397C313.121 96.3397 318.307 102.74 326.363 102.74C334.419 102.74 331.66 96.3397 331.66 96.3397C325.039 94.7948 325.149 89.8288 326.363 85.1939L314.997 75.4827Z" fill="#FFC3BD"/>
<path opacity="0.2" d="M319.743 79.5658L326.474 85.3043C326.143 86.4078 326.033 87.5114 325.922 88.6149C323.384 88.2838 319.412 86.0767 318.86 83.3179C318.529 81.9936 319.412 80.1176 319.743 79.5658Z" fill="black"/>
<path d="M308.044 63.7848C309.589 73.6063 310.03 77.9102 315.548 82.4347C323.825 89.3871 335.633 85.3039 337.067 75.1513C338.392 65.9919 335.522 51.425 325.48 48.4454C318.307 46.2383 310.693 50.3215 308.486 57.4945C307.823 59.5913 307.603 61.688 308.044 63.7848Z" fill="#FFC3BD"/>
<path d="M309.701 70.9579C315.329 65.3298 317.315 57.6049 316.763 54.4046C322.171 55.9496 326.144 53.7425 325.923 52.8597C329.785 56.6117 336.738 59.5913 335.965 55.5082C335.193 51.425 330.006 44.0313 319.302 46.6798C308.597 49.3283 304.404 60.3638 304.514 64.8883C304.624 69.4129 309.701 70.9579 309.701 70.9579Z" fill="#263238"/>
<path d="M322.17 64.8883C322.281 65.6608 322.722 66.323 323.274 66.2126C323.825 66.1023 324.157 65.4401 324.046 64.6676C323.936 63.8951 323.494 63.233 322.943 63.3434C322.391 63.4537 322.17 64.1159 322.17 64.8883Z" fill="#263238"/>
<path d="M331.33 64.1159C331.44 64.8884 331.882 65.5506 332.433 65.4402C332.985 65.3298 333.316 64.6677 333.206 63.8952C333.095 63.1228 332.654 62.4606 332.102 62.571C331.55 62.6813 331.219 63.2331 331.33 64.1159Z" fill="#263238"/>
<path d="M331.991 62.5712L333.867 61.7987C333.867 61.7987 332.985 63.454 331.991 62.5712Z" fill="#263238"/>
<path d="M328.68 65.7712C329.563 67.5369 330.667 69.1922 331.991 70.6268C331.219 71.289 330.225 71.62 329.122 71.3993L328.68 65.7712Z" fill="#ED847E"/>
<path d="M325.149 75.041C325.59 75.041 325.921 75.041 326.363 75.041C326.473 75.041 326.583 74.9307 326.583 74.8203C326.583 74.7099 326.473 74.5996 326.363 74.5996C324.376 74.8203 322.28 74.0478 320.845 72.6132C320.735 72.5029 320.624 72.5029 320.514 72.6132C320.404 72.7236 320.404 72.8339 320.514 72.9443C321.618 74.1582 323.273 74.9307 325.149 75.041Z" fill="#263238"/>
<path d="M305.838 71.8408C306.61 73.6065 307.934 75.0411 309.81 75.8136C312.128 76.8067 313.673 74.71 313.231 72.3926C312.9 70.1855 311.135 67.0955 308.707 67.2059C306.831 67.3162 305.507 68.8612 305.507 70.6269C305.507 71.0683 305.617 71.3994 305.838 71.8408Z" fill="#FFC3BD"/>
<path d="M318.97 60.6947C319.191 60.805 319.412 60.6947 319.522 60.5843C320.957 58.8187 323.716 59.0394 323.826 59.0394C324.047 59.0394 324.267 58.8186 324.378 58.5979C324.378 58.3772 324.267 58.1565 323.936 58.0462C323.826 58.0462 320.626 57.8255 318.86 59.9222C318.75 60.1429 318.75 60.474 318.97 60.5843V60.6947Z" fill="#263238"/>
<path d="M334.64 59.7019C334.86 59.7019 335.081 59.4812 335.191 59.2605C335.191 59.0398 335.081 58.9294 334.971 58.8191C333.757 57.9362 332.101 57.7155 330.667 58.1569C330.446 58.2673 330.336 58.488 330.446 58.8191C330.556 59.0398 330.777 59.1501 331.108 59.0398C332.212 58.7087 333.536 58.8191 334.529 59.5915C334.529 59.7019 334.529 59.7019 334.64 59.7019Z" fill="#263238"/>
<path d="M369.291 388.228L379.554 387.787L376.464 364.723L366.312 365.275L369.291 388.228Z" fill="#FFC3BD"/>
<g opacity="0.2">
<path opacity="0.2" d="M376.464 364.833L378.009 376.641L367.857 377.082L366.312 365.274L376.464 364.833Z" fill="black"/>
</g>
<path d="M344.02 159.793C344.02 159.793 356.821 237.373 362.008 267.5C367.415 298.951 379.665 372.889 379.665 372.889L366.201 375.096C366.201 375.096 348.103 301.048 340.82 270.259C332.985 236.6 313.893 191.576 314.004 159.793H344.02Z" fill="#6364EC"/>
<path opacity="0.2" d="M323.384 183.52C321.508 180.761 317.756 176.788 314.887 173.588C317.425 193.341 324.819 216.295 331.55 237.814C333.426 221.482 332.433 196.542 323.384 183.52Z" fill="black"/>
<path d="M306.61 386.683H316.652L317.314 363.398H307.272L306.61 386.683Z" fill="#FFC3BD"/>
<path d="M317.205 385.138H305.948C305.507 385.138 305.176 385.469 305.176 385.8L303.852 394.739C303.741 395.622 304.403 396.394 305.286 396.505H305.397C309.369 396.394 311.245 396.174 316.211 396.174C319.301 396.174 325.592 396.505 329.785 396.505C333.979 396.505 334.199 392.311 332.434 391.98C324.598 390.325 321.398 388.008 318.75 385.69C318.418 385.359 317.756 385.138 317.205 385.138Z" fill="#263238"/>
<g opacity="0.2">
<path opacity="0.2" d="M317.314 363.398L316.983 375.427H306.941L307.272 363.398H317.314Z" fill="black"/>
</g>
<path d="M332.435 159.794C332.435 159.794 328.351 238.366 325.593 268.824C322.723 300.607 319.192 372.668 319.192 372.668H305.618C305.618 372.668 303.19 300.827 304.184 269.486C305.177 235.276 297.011 191.466 302.528 159.683L332.435 159.794Z" fill="#6364EC"/>
<path d="M304.514 373.22L320.515 373.551L320.736 363.729L304.404 364.833L304.514 373.22Z" fill="#263238"/>
<path d="M320.956 386.904C321.839 387.014 322.721 386.794 323.384 386.242C323.715 385.911 323.825 385.469 323.825 385.028C323.825 384.807 323.604 384.476 323.384 384.366C322.17 383.704 318.087 385.69 317.645 386.021C317.535 386.021 317.535 386.131 317.535 386.242C317.535 386.352 317.645 386.463 317.756 386.463C318.859 386.794 319.852 386.904 320.956 386.904ZM322.721 384.807C322.832 384.807 323.053 384.807 323.163 384.918C323.273 384.918 323.273 385.028 323.273 385.138C323.273 385.469 323.163 385.69 323.053 385.911C322.501 386.463 320.845 386.573 318.528 386.131C319.852 385.58 321.287 385.028 322.721 384.807Z" fill="#6364EC"/>
<path d="M317.867 386.573C319.191 386.021 321.509 383.814 321.399 382.71C321.399 382.489 321.178 382.158 320.516 382.048C320.074 381.938 319.522 382.158 319.191 382.489C317.977 383.593 317.646 386.242 317.646 386.352C317.646 386.462 317.646 386.573 317.757 386.573C317.757 386.573 317.757 386.573 317.867 386.573ZM320.185 382.489H320.295C320.736 382.489 320.736 382.71 320.736 382.71C320.847 383.372 319.191 385.138 317.977 385.8C318.088 384.697 318.529 383.593 319.302 382.71C319.633 382.6 319.964 382.489 320.185 382.489Z" fill="#6364EC"/>
<path d="M379.333 385.138H368.077C367.746 385.138 367.415 385.359 367.415 385.69V385.8L367.966 394.739C368.077 395.732 368.96 396.505 369.953 396.505C373.925 396.394 375.691 396.174 380.657 396.174C383.747 396.174 390.148 396.505 394.341 396.505C398.535 396.505 397.872 392.311 396.107 391.98C387.83 390.325 384.299 388.008 381.099 385.69C380.657 385.359 379.995 385.138 379.333 385.138Z" fill="#263238"/>
<path d="M383.197 386.904C384.079 387.014 384.962 386.794 385.624 386.242C385.955 385.911 386.066 385.469 386.066 385.028C386.066 384.807 385.845 384.476 385.624 384.366C384.41 383.704 380.327 385.69 379.886 386.021C379.776 386.021 379.776 386.131 379.776 386.242C379.776 386.352 379.886 386.463 379.996 386.463C380.99 386.794 382.093 386.904 383.197 386.904ZM384.962 384.807C385.073 384.807 385.293 384.807 385.404 384.918C385.514 384.918 385.514 385.028 385.514 385.138C385.514 385.469 385.404 385.69 385.293 385.911C384.631 386.463 382.976 386.573 380.769 386.131C382.093 385.58 383.528 385.028 384.962 384.807Z" fill="#6364EC"/>
<path d="M379.996 386.573C381.32 386.021 383.638 383.814 383.417 382.711C383.417 382.49 383.197 382.159 382.534 382.048C382.093 382.048 381.541 382.159 381.21 382.49C379.996 383.593 379.665 386.242 379.665 386.352C379.665 386.463 379.665 386.573 379.776 386.573C379.996 386.573 379.996 386.573 379.996 386.573ZM382.424 382.49H382.534C382.976 382.49 382.976 382.711 382.976 382.711C383.086 383.373 381.431 385.138 380.217 385.801C380.327 384.697 380.769 383.593 381.541 382.711C381.872 382.6 382.093 382.49 382.424 382.49Z" fill="#6364EC"/>
<path d="M365.098 375.758L380.768 373.22L379.002 364.723L363.442 368.475L365.098 375.758Z" fill="#263238"/>
<path d="M322.832 63.4538L324.708 62.6813C324.708 62.6813 323.826 64.3367 322.832 63.4538Z" fill="#263238"/>
<path d="M302.417 157.366L301.423 161.008C301.313 161.228 301.644 161.559 302.085 161.559H344.131C344.462 161.559 344.793 161.339 344.793 161.118L345.124 157.476C345.124 157.255 344.793 157.035 344.462 157.035H303.079C302.858 157.035 302.637 157.145 302.417 157.366Z" fill="#263238"/>
<path d="M308.154 162.001H307.051C306.83 162.001 306.609 161.89 306.72 161.78L307.272 157.035C307.272 156.924 307.492 156.814 307.713 156.814H308.817C309.037 156.814 309.258 156.924 309.148 157.035L308.596 161.78C308.596 161.89 308.375 162.001 308.154 162.001Z" fill="#6364EC"/>
<path d="M341.041 162.001H339.938C339.717 162.001 339.496 161.89 339.607 161.78L340.159 157.035C340.159 156.924 340.379 156.814 340.6 156.814H341.704C341.924 156.814 342.145 156.924 342.035 157.035L341.483 161.78C341.483 161.89 341.262 162.001 341.041 162.001Z" fill="#6364EC"/>
<path d="M324.708 162.001H323.605C323.384 162.001 323.163 161.89 323.274 161.78L323.825 157.035C323.825 156.924 324.046 156.814 324.267 156.814H325.37C325.591 156.814 325.812 156.924 325.701 157.035L325.15 161.78C325.039 161.89 324.929 162.001 324.708 162.001Z" fill="#6364EC"/>
<path d="M311.466 96.1188C305.065 96.6706 295.244 95.4567 295.575 105.278C295.906 115.1 293.92 141.144 294.471 153.393C295.023 165.642 291.823 244.546 296.899 267.389C297.782 271.362 330.999 270.921 335.082 270.479V266.838C335.082 266.838 359.25 263.637 365.209 264.631C364.657 250.836 351.304 181.423 350.863 161.89C350.421 142.357 352.518 108.81 352.408 103.513C352.297 98.2156 341.703 95.8981 335.192 96.0085C336.627 100.864 333.427 109.803 328.35 119.845C315.88 107.816 312.128 101.857 311.466 96.1188Z" fill="#6364EC"/>
<path opacity="0.7" d="M311.466 96.1188C305.065 96.6706 295.244 95.4567 295.575 105.278C295.906 115.1 293.92 141.144 294.471 153.393C295.023 165.642 291.823 244.546 296.899 267.389C297.782 271.362 330.999 270.921 335.082 270.479V266.838C335.082 266.838 359.25 263.637 365.209 264.631C364.657 250.836 351.304 181.423 350.863 161.89C350.421 142.357 352.518 108.81 352.408 103.513C352.297 98.2156 341.703 95.8981 335.192 96.0085C336.627 100.864 333.427 109.803 328.35 119.845C315.88 107.816 312.128 101.857 311.466 96.1188Z" fill="white"/>
<path opacity="0.2" d="M299.217 119.404L295.133 122.273C294.802 130.77 294.361 140.261 294.361 147.655C298.113 139.268 300.32 127.129 299.217 119.404Z" fill="#6364EC"/>
<path d="M312.349 110.575C312.128 110.906 311.907 111.237 311.687 111.458L311.466 111.679L311.355 111.789L311.135 112.01L310.693 112.451L309.81 113.445C309.259 114.107 308.597 114.769 308.045 115.431C306.941 116.755 305.838 118.19 304.734 119.624C302.527 122.494 300.541 125.363 298.665 128.453C295.023 134.081 292.374 140.261 290.829 146.772C290.498 148.206 290.388 149.751 290.278 151.186C290.388 151.958 290.609 152.62 290.94 153.283C292.374 156.262 294.03 159.021 296.016 161.67C298.113 164.539 300.43 167.408 302.748 170.277C303.962 171.712 305.176 173.036 306.389 174.471C307.603 175.905 308.928 177.23 310.142 178.444L298.223 189.92C296.789 188.375 295.464 186.941 294.14 185.396L290.278 180.871C287.739 177.781 285.201 174.691 282.773 171.27C280.125 167.739 277.807 163.987 275.931 160.014C275.38 158.8 274.938 157.476 274.497 156.262C274.276 155.49 274.055 154.717 273.945 153.945C273.835 153.503 273.835 153.062 273.724 152.621C273.724 152.179 273.614 151.627 273.724 151.186C273.724 148.868 273.945 146.441 274.276 144.123C275.049 139.709 276.262 135.405 277.918 131.212C279.463 127.239 281.339 123.487 283.436 119.735C285.422 116.093 287.739 112.672 290.057 109.251C291.271 107.596 292.374 105.83 293.699 104.285L295.575 101.857L296.568 100.643L297.12 99.9812L297.34 99.6502L297.451 99.5398L297.34 99.7605C297.12 99.9812 296.899 100.312 296.789 100.533L312.349 110.575Z" fill="#6364EC"/>
<path opacity="0.7" d="M312.349 110.575C312.128 110.906 311.907 111.237 311.687 111.458L311.466 111.679L311.355 111.789L311.135 112.01L310.693 112.451L309.81 113.445C309.259 114.107 308.597 114.769 308.045 115.431C306.941 116.755 305.838 118.19 304.734 119.624C302.527 122.494 300.541 125.363 298.665 128.453C295.023 134.081 292.374 140.261 290.829 146.772C290.498 148.206 290.388 149.751 290.278 151.186C290.388 151.958 290.609 152.62 290.94 153.283C292.374 156.262 294.03 159.021 296.016 161.67C298.113 164.539 300.43 167.408 302.748 170.277C303.962 171.712 305.176 173.036 306.389 174.471C307.603 175.905 308.928 177.23 310.142 178.444L298.223 189.92C296.789 188.375 295.464 186.941 294.14 185.396L290.278 180.871C287.739 177.781 285.201 174.691 282.773 171.27C280.125 167.739 277.807 163.987 275.931 160.014C275.38 158.8 274.938 157.476 274.497 156.262C274.276 155.49 274.055 154.717 273.945 153.945C273.835 153.503 273.835 153.062 273.724 152.621C273.724 152.179 273.614 151.627 273.724 151.186C273.724 148.868 273.945 146.441 274.276 144.123C275.049 139.709 276.262 135.405 277.918 131.212C279.463 127.239 281.339 123.487 283.436 119.735C285.422 116.093 287.739 112.672 290.057 109.251C291.271 107.596 292.374 105.83 293.699 104.285L295.575 101.857L296.568 100.643L297.12 99.9812L297.34 99.6502L297.451 99.5398L297.34 99.7605C297.12 99.9812 296.899 100.312 296.789 100.533L312.349 110.575Z" fill="white"/>
<path opacity="0.3" d="M328.351 119.956C329.454 143.461 335.855 225.675 335.082 266.838L336.958 266.617C336.958 266.617 333.979 203.163 332.655 175.354C331.33 147.544 328.351 119.956 328.351 119.956Z" fill="#6364EC"/>
<path opacity="0.3" d="M309.26 178.775L297.452 191.576C297.452 195.88 294.472 204.377 302.418 207.578C310.364 210.778 310.474 188.045 309.26 178.775Z" fill="#6364EC"/>
<path opacity="0.3" d="M347.663 178.333L352.849 191.355C352.96 195.769 354.505 204.598 351.415 208.019C348.325 211.44 347.442 187.934 347.663 178.333Z" fill="#6364EC"/>
<path d="M334.75 128.122L347.661 128.011C348.103 128.011 348.544 127.68 348.544 127.129V127.018L347.882 120.838C347.772 120.287 347.33 119.845 346.778 119.845L333.867 119.956C333.315 119.956 332.984 120.287 332.984 120.838V120.949L333.646 127.129C333.757 127.791 334.198 128.122 334.75 128.122Z" fill="white" stroke="#6364EC" stroke-width="0.5" stroke-miterlimit="10"/>
</g>
<defs>
<clipPath id="clip0">
<rect width="551.774" height="411.182" fill="white" transform="translate(-42)"/>
</clipPath>
</defs>
</svg>
