<svg xmlns="http://www.w3.org/2000/svg" viewBox="0 0 1000 1000" width="1000" height="1000" preserveAspectRatio="xMidYMid slice" style="width: 100%; height: 100%; transform: translate3d(0px, 0px, 0px); content-visibility: visible;"><defs><clipPath id="__lottie_element_16"><rect width="1000" height="1000" x="0" y="0"></rect></clipPath><mask id="__lottie_element_18" mask-type="alpha"><g transform="matrix(0,0,0,0,478.9724426269531,557.745361328125)" opacity="1" style="display: none;"><g opacity="1" transform="matrix(1,0,0,1,0,0)"><path fill="rgb(18,18,18)" fill-opacity="1" d=" M-171,-338 C-201,-329 -253,-309 -235,-242 C-210.38400268554688,-150.375 -117,-220 -110,-238 C-103,-256 -85,-324 -171,-338z"></path></g></g></mask></defs><g clip-path="url(#__lottie_element_16)"><g transform="matrix(2.609999895095825,0,0,2.609999895095825,280.296630859375,212.01437377929688)" opacity="1" style="display: block;"><g opacity="1" transform="matrix(1,0,0,1,74.64700317382812,118.75599670410156)"><path fill="rgb(34,31,31)" fill-opacity="1" d=" M44.03900146484375,118.50499725341797 C44.03900146484375,118.50499725341797 -44.040000915527344,118.50499725341797 -44.040000915527344,118.50499725341797 C-60.77899932861328,118.50499725341797 -74.39700317382812,104.88700103759766 -74.39700317382812,88.14800262451172 C-74.39700317382812,88.14800262451172 -74.39700317382812,-88.14800262451172 -74.39700317382812,-88.14800262451172 C-74.39700317382812,-104.88800048828125 -60.77899932861328,-118.50499725341797 -44.040000915527344,-118.50499725341797 C-44.040000915527344,-118.50499725341797 44.03900146484375,-118.50499725341797 44.03900146484375,-118.50499725341797 C60.77799987792969,-118.50499725341797 74.39700317382812,-104.88800048828125 74.39700317382812,-88.14800262451172 C74.39700317382812,-88.14800262451172 74.39700317382812,88.14800262451172 74.39700317382812,88.14800262451172 C74.39700317382812,104.88700103759766 60.77799987792969,118.50499725341797 44.03900146484375,118.50499725341797z M-44.040000915527344,-109.8499984741211 C-56.00600051879883,-109.8499984741211 -65.74199676513672,-100.11499786376953 -65.74199676513672,-88.14800262451172 C-65.74199676513672,-88.14800262451172 -65.74199676513672,88.14800262451172 -65.74199676513672,88.14800262451172 C-65.74199676513672,100.11399841308594 -56.00600051879883,109.8489990234375 -44.040000915527344,109.8489990234375 C-44.040000915527344,109.8489990234375 44.03900146484375,109.8489990234375 44.03900146484375,109.8489990234375 C56.005001068115234,109.8489990234375 65.73999786376953,100.11399841308594 65.73999786376953,88.14800262451172 C65.73999786376953,88.14800262451172 65.73999786376953,-88.14800262451172 65.73999786376953,-88.14800262451172 C65.73999786376953,-100.11499786376953 56.005001068115234,-109.8499984741211 44.03900146484375,-109.8499984741211 C44.03900146484375,-109.8499984741211 -44.040000915527344,-109.8499984741211 -44.040000915527344,-109.8499984741211z"></path></g><g opacity="1" transform="matrix(1,0,0,1,74.64700317382812,110.39600372314453)"><path fill="rgb(34,31,31)" fill-opacity="1" d=" M70.06900024414062,84.11699676513672 C70.06900024414062,84.11699676513672 -70.06900024414062,84.11699676513672 -70.06900024414062,84.11699676513672 C-72.45899963378906,84.11699676513672 -74.39700317382812,82.18000030517578 -74.39700317382812,79.78900146484375 C-74.39700317382812,79.78900146484375 -74.39700317382812,-79.78900146484375 -74.39700317382812,-79.78900146484375 C-74.39700317382812,-82.17900085449219 -72.45899963378906,-84.11699676513672 -70.06900024414062,-84.11699676513672 C-70.06900024414062,-84.11699676513672 70.06900024414062,-84.11699676513672 70.06900024414062,-84.11699676513672 C72.45899963378906,-84.11699676513672 74.39700317382812,-82.17900085449219 74.39700317382812,-79.78900146484375 C74.39700317382812,-79.78900146484375 74.39700317382812,79.78900146484375 74.39700317382812,79.78900146484375 C74.39700317382812,82.18000030517578 72.45899963378906,84.11699676513672 70.06900024414062,84.11699676513672z M-65.74199676513672,75.46199798583984 C-65.74199676513672,75.46199798583984 65.74099731445312,75.46199798583984 65.74099731445312,75.46199798583984 C65.74099731445312,75.46199798583984 65.74099731445312,-75.45999908447266 65.74099731445312,-75.45999908447266 C65.74099731445312,-75.45999908447266 -65.74199676513672,-75.45999908447266 -65.74199676513672,-75.45999908447266 C-65.74199676513672,-75.45999908447266 -65.74199676513672,75.46199798583984 -65.74199676513672,75.46199798583984z"></path></g><g opacity="1" transform="matrix(1,0,0,1,74.64700317382812,210.4340057373047)"><path fill="rgb(34,31,31)" fill-opacity="1" d=" M13.288000106811523,4.328000068664551 C13.288000106811523,4.328000068664551 -13.288000106811523,4.328000068664551 -13.288000106811523,4.328000068664551 C-15.678000450134277,4.328000068664551 -17.614999771118164,2.390000104904175 -17.614999771118164,0 C-17.614999771118164,-2.390000104904175 -15.678000450134277,-4.328000068664551 -13.288000106811523,-4.328000068664551 C-13.288000106811523,-4.328000068664551 13.288000106811523,-4.328000068664551 13.288000106811523,-4.328000068664551 C15.678000450134277,-4.328000068664551 17.614999771118164,-2.390000104904175 17.614999771118164,0 C17.614999771118164,2.390000104904175 15.678000450134277,4.328000068664551 13.288000106811523,4.328000068664551z"></path></g></g><g transform="matrix(0,0,0,0,478.9724426269531,557.745361328125)" opacity="1" style="display: none;"><g opacity="1" transform="matrix(1,0,0,1,74.50800323486328,78.37100219726562)"><path fill="rgb(77,221,186)" fill-opacity="1" d=" M47.02299880981445,48.55400085449219 C73.41600036621094,22.16200065612793 73.41600036621094,-20.6299991607666 47.02299880981445,-47.02299880981445 C20.6299991607666,-73.41600036621094 -22.16200065612793,-73.41600036621094 -48.55500030517578,-47.02299880981445 C-68.5999984741211,-26.97800064086914 -73.41500091552734,2.5239999294281006 -63.01300048828125,27.118000030517578 C-63.01300048828125,27.118000030517578 -69.76599884033203,69.76499938964844 -69.76599884033203,69.76499938964844 C-69.76599884033203,69.76499938964844 -27.117000579833984,63.013999938964844 -27.117000579833984,63.013999938964844 C-27.117000579833984,63.013999938964844 -27.118000030517578,63.01300048828125 -27.118000030517578,63.01300048828125 C-2.5230000019073486,73.41600036621094 26.979000091552734,68.5989990234375 47.02299880981445,48.55400085449219z"></path></g><g opacity="1" transform="matrix(1,0,0,1,76.43900299072266,76.35800170898438)"><path fill="rgb(34,31,31)" fill-opacity="1" d=" M-71.6969985961914,76.10800170898438 C-72.83599853515625,76.10800170898438 -73.93900299072266,75.65799713134766 -74.75800323486328,74.83999633789062 C-75.73699951171875,73.86000061035156 -76.18900299072266,72.47000122070312 -75.97100067138672,71.10099792480469 C-75.97100067138672,71.10099792480469 -69.41000366210938,29.658000946044922 -69.41000366210938,29.658000946044922 C-74.52999877929688,16.94300079345703 -75.90699768066406,3.1070001125335693 -73.38800048828125,-10.435999870300293 C-70.72899627685547,-24.735000610351562 -63.86800003051758,-37.74800109863281 -53.547000885009766,-48.069000244140625 C-25.507999420166016,-76.10700225830078 20.11400032043457,-76.10700225830078 48.152000427246094,-48.069000244140625 C76.18900299072266,-20.030000686645508 76.18900299072266,25.590999603271484 48.152000427246094,53.62900161743164 C37.83000183105469,63.95000076293945 24.816999435424805,70.80999755859375 10.517999649047852,73.47000122070312 C-3.0239999294281006,75.98899841308594 -16.858999252319336,74.61299896240234 -29.572999954223633,69.49299621582031 C-29.572999954223633,69.49299621582031 -71.0199966430664,76.0530014038086 -71.0199966430664,76.0530014038086 C-71.24600219726562,76.08899688720703 -71.4729995727539,76.10800170898438 -71.6969985961914,76.10800170898438z M-2.697000026702881,-60.44599914550781 C-18.898000717163086,-60.44599914550781 -35.09299850463867,-54.28200149536133 -47.42599868774414,-41.94900131225586 C-56.505001068115234,-32.86899948120117 -62.53900146484375,-21.423999786376953 -64.87799835205078,-8.852999687194824 C-67.16200256347656,3.430999994277954 -65.80699920654297,15.982999801635742 -60.95899963378906,27.445999145507812 C-60.64400100708008,28.191999435424805 -60.54399871826172,29.01099967956543 -60.66999816894531,29.80900001525879 C-60.66999816894531,29.80900001525879 -66.48999786376953,66.5719985961914 -66.48999786376953,66.5719985961914 C-66.48999786376953,66.5719985961914 -29.812999725341797,60.766998291015625 -29.812999725341797,60.766998291015625 C-29.009000778198242,60.62200164794922 -28.15999984741211,60.70399856567383 -27.36400032043457,61.04100036621094 C-15.901000022888184,65.88899993896484 -3.3469998836517334,67.24500274658203 8.935999870300293,64.95999908447266 C21.506999969482422,62.62200164794922 32.95199966430664,56.58599853515625 42.03099822998047,47.50699996948242 C66.69400024414062,22.844999313354492 66.69400024414062,-17.285999298095703 42.03099822998047,-41.94900131225586 C29.700000762939453,-54.27899932861328 13.49899959564209,-60.44599914550781 -2.697000026702881,-60.44599914550781z"></path></g></g><g mask="url(#__lottie_element_18)" style="display: none;"><g transform="matrix(0,0,0,0,478.9724426269531,557.745361328125)" opacity="1"><g opacity="1" transform="matrix(1,0,0,1,46.034000396728516,32.92300033569336)"><path fill="rgb(255,255,255)" fill-opacity="1" d=" M41.099998474121094,28.344999313354492 C41.099998474121094,28.344999313354492 -41.099998474121094,28.344999313354492 -41.099998474121094,28.344999313354492 C-41.099998474121094,28.344999313354492 -41.099998474121094,-28.344999313354492 -41.099998474121094,-28.344999313354492 C-41.099998474121094,-28.344999313354492 41.099998474121094,-28.344999313354492 41.099998474121094,-28.344999313354492 C41.099998474121094,-28.344999313354492 41.099998474121094,28.344999313354492 41.099998474121094,28.344999313354492z"></path></g><g opacity="1" transform="matrix(1,0,0,1,46.034000396728516,32.92300033569336)"><path fill="rgb(34,31,31)" fill-opacity="1" d=" M41.099998474121094,32.67300033569336 C41.099998474121094,32.67300033569336 -41.099998474121094,32.67300033569336 -41.099998474121094,32.67300033569336 C-43.4900016784668,32.67300033569336 -45.428001403808594,30.735000610351562 -45.428001403808594,28.344999313354492 C-45.428001403808594,28.344999313354492 -45.428001403808594,-28.344999313354492 -45.428001403808594,-28.344999313354492 C-45.428001403808594,-30.735000610351562 -43.4900016784668,-32.67300033569336 -41.099998474121094,-32.67300033569336 C-41.099998474121094,-32.67300033569336 41.099998474121094,-32.67300033569336 41.099998474121094,-32.67300033569336 C43.4900016784668,-32.67300033569336 45.428001403808594,-30.735000610351562 45.428001403808594,-28.344999313354492 C45.428001403808594,-28.344999313354492 45.428001403808594,28.344999313354492 45.428001403808594,28.344999313354492 C45.428001403808594,30.735000610351562 43.4900016784668,32.67300033569336 41.099998474121094,32.67300033569336z M-36.77199935913086,24.017000198364258 C-36.77199935913086,24.017000198364258 36.77199935913086,24.017000198364258 36.77199935913086,24.017000198364258 C36.77199935913086,24.017000198364258 36.77199935913086,-24.017000198364258 36.77199935913086,-24.017000198364258 C36.77199935913086,-24.017000198364258 -36.77199935913086,-24.017000198364258 -36.77199935913086,-24.017000198364258 C-36.77199935913086,-24.017000198364258 -36.77199935913086,24.017000198364258 -36.77199935913086,24.017000198364258z"></path></g><g opacity="1" transform="matrix(1,0,0,1,46.03300094604492,23.00200080871582)"><path fill="rgb(255,255,255)" fill-opacity="1" d=" M-41.099998474121094,-18.423999786376953 C-41.099998474121094,-18.423999786376953 0,18.423999786376953 0,18.423999786376953 C0,18.423999786376953 41.099998474121094,-18.423999786376953 41.099998474121094,-18.423999786376953 C41.099998474121094,-18.423999786376953 -41.099998474121094,-18.423999786376953 -41.099998474121094,-18.423999786376953z"></path></g><g opacity="1" transform="matrix(1,0,0,1,46.034000396728516,23.003000259399414)"><path fill="rgb(34,31,31)" fill-opacity="1" d=" M0,22.75200080871582 C-1.034000039100647,22.75200080871582 -2.065999984741211,22.384000778198242 -2.8889999389648438,21.64699935913086 C-2.8889999389648438,21.64699935913086 -43.9900016784668,-15.20199966430664 -43.9900016784668,-15.20199966430664 C-45.32600021362305,-16.399999618530273 -45.784000396728516,-18.297000885009766 -45.143001556396484,-19.972000122070312 C-44.50199890136719,-21.64699935913086 -42.893001556396484,-22.75200080871582 -41.099998474121094,-22.75200080871582 C-41.099998474121094,-22.75200080871582 41.099998474121094,-22.75200080871582 41.099998474121094,-22.75200080871582 C42.893001556396484,-22.75200080871582 44.500999450683594,-21.64699935913086 45.143001556396484,-19.972000122070312 C45.78300094604492,-18.297000885009766 45.32500076293945,-16.399999618530273 43.9900016784668,-15.20199966430664 C43.9900016784668,-15.20199966430664 2.8889999389648438,21.64699935913086 2.8889999389648438,21.64699935913086 C2.066999912261963,22.384000778198242 1.0329999923706055,22.75200080871582 0,22.75200080871582z M-29.788999557495117,-14.097000122070312 C-29.788999557495117,-14.097000122070312 0,12.611000061035156 0,12.611000061035156 C0,12.611000061035156 29.788999557495117,-14.097000122070312 29.788999557495117,-14.097000122070312 C29.788999557495117,-14.097000122070312 -29.788999557495117,-14.097000122070312 -29.788999557495117,-14.097000122070312z"></path></g></g></g></g></svg>